# xmcd
#
# Track frame offsets:
#	151
#	15180
#	24735
#	36388
#	50291
#	66278
#	80403
#	93482
#	108213
#	117536
#	132567
#	147222
#
# Disc length: 2143 seconds
#
# Revision: 2
# Processed by: cddbd v1.5.2PL0 Copyright (c) Steve Scherf et al.
# Submitted via: audiograbber 1.83.01
#
DISCID=a1085d0c
DTITLE=Terri Williams - Christmas with
DYEAR=1900
DGENRE=Christmas
TTITLE0=Did You See Him, In The Tears
TTITLE1=Sweet Little Baby
TTITLE2=Above Every Sumit, There's Peace
TTITLE3=Oh Sweet Mother
TTITLE4=It's Christmas Eve
TTITLE5=Let Christmas Bring Peace and Love
TTITLE6=His Wonderful Creation
TTITLE7=Let His Spirit Breathe
TTITLE8=Take My Hand In Yours Sweet Jesus
TTITLE9=A World Of His Wonder
TTITLE10=He Came Down To Earth
TTITLE11=Better To Be Loved And Lost
EXTD=
EXTT0=
EXTT1=
EXTT2=
EXTT3=
EXTT4=
EXTT5=
EXTT6=
EXTT7=
EXTT8=
EXTT9=
EXTT10=
EXTT11=
PLAYORDER=
